<svg xmlns="http://www.w3.org/2000/svg" width="580" height="187" viewBox="0 0 580 187" fill="none"><rect width="579.263" height="186.192" fill="#4A3087"></rect><path d="M95.2513 83.6208C99.6147 83.6208 103.525 84.5842 106.981 86.5108C110.438 88.4375 113.13 91.1292 115.056 94.5858C117.04 98.0425 118.031 102.037 118.031 106.571C118.031 111.104 117.04 115.127 115.056 118.641C113.13 122.097 110.438 124.789 106.981 126.716C103.525 128.642 99.6147 129.606 95.2513 129.606C92.0213 129.606 89.0463 128.982 86.3263 127.736C83.663 126.489 81.3963 124.676 79.5263 122.296V145.586H71.3663V84.0458H79.1863V91.1858C80.9997 88.6925 83.2947 86.8225 86.0713 85.5758C88.848 84.2725 91.908 83.6208 95.2513 83.6208ZM94.5713 122.466C97.4613 122.466 100.04 121.814 102.306 120.511C104.63 119.151 106.443 117.281 107.746 114.901C109.106 112.464 109.786 109.687 109.786 106.571C109.786 103.454 109.106 100.706 107.746 98.3258C106.443 95.8892 104.63 94.0192 102.306 92.7158C100.04 91.4125 97.4613 90.7608 94.5713 90.7608C91.738 90.7608 89.1597 91.4408 86.8363 92.8008C84.5697 94.1042 82.7563 95.9458 81.3963 98.3258C80.093 100.706 79.4413 103.454 79.4413 106.571C79.4413 109.687 80.093 112.464 81.3963 114.901C82.6997 117.281 84.513 119.151 86.8363 120.511C89.1597 121.814 91.738 122.466 94.5713 122.466Z" fill="white"></path><path d="M172.146 106.826C172.146 107.449 172.089 108.271 171.976 109.291H135.426C135.936 113.257 137.664 116.459 140.611 118.896C143.614 121.276 147.326 122.466 151.746 122.466C157.129 122.466 161.464 120.652 164.751 117.026L169.256 122.296C167.216 124.676 164.666 126.489 161.606 127.736C158.602 128.982 155.231 129.606 151.491 129.606C146.731 129.606 142.509 128.642 138.826 126.716C135.142 124.732 132.281 121.984 130.241 118.471C128.257 114.957 127.266 110.991 127.266 106.571C127.266 102.207 128.229 98.2692 130.156 94.7558C132.139 91.2425 134.831 88.5225 138.231 86.5958C141.687 84.6125 145.569 83.6208 149.876 83.6208C154.182 83.6208 158.007 84.6125 161.351 86.5958C164.751 88.5225 167.386 91.2425 169.256 94.7558C171.182 98.2692 172.146 102.292 172.146 106.826ZM149.876 90.5058C145.966 90.5058 142.679 91.6958 140.016 94.0758C137.409 96.4558 135.879 99.5725 135.426 103.426H164.326C163.872 99.6292 162.314 96.5408 159.651 94.1608C157.044 91.7242 153.786 90.5058 149.876 90.5058Z" fill="white"></path><path d="M193.422 91.6108C194.838 89.0042 196.935 87.0208 199.712 85.6608C202.488 84.3008 205.86 83.6208 209.827 83.6208V91.5258C209.373 91.4692 208.75 91.4408 207.957 91.4408C203.537 91.4408 200.052 92.7725 197.502 95.4358C195.008 98.0425 193.762 101.782 193.762 106.656V129.096H185.602V84.0458H193.422V91.6108Z" fill="white"></path><path d="M235.261 129.606C231.578 129.606 228.036 129.124 224.636 128.161C221.236 127.141 218.573 125.866 216.646 124.336L220.046 117.876C222.029 119.292 224.438 120.426 227.271 121.276C230.104 122.126 232.966 122.551 235.856 122.551C242.996 122.551 246.566 120.511 246.566 116.431C246.566 115.071 246.084 113.994 245.121 113.201C244.158 112.407 242.939 111.841 241.466 111.501C240.049 111.104 238.009 110.679 235.346 110.226C231.719 109.659 228.744 109.007 226.421 108.271C224.154 107.534 222.199 106.287 220.556 104.531C218.913 102.774 218.091 100.309 218.091 97.1358C218.091 93.0558 219.791 89.7975 223.191 87.3608C226.591 84.8675 231.153 83.6208 236.876 83.6208C239.879 83.6208 242.883 83.9892 245.886 84.7258C248.889 85.4625 251.354 86.4542 253.281 87.7008L249.796 94.1608C246.113 91.7808 241.778 90.5908 236.791 90.5908C233.334 90.5908 230.699 91.1575 228.886 92.2908C227.073 93.4242 226.166 94.9258 226.166 96.7958C226.166 98.2692 226.676 99.4308 227.696 100.281C228.716 101.131 229.963 101.754 231.436 102.151C232.966 102.547 235.091 103.001 237.811 103.511C241.438 104.134 244.356 104.814 246.566 105.551C248.833 106.231 250.759 107.421 252.346 109.121C253.933 110.821 254.726 113.201 254.726 116.261C254.726 120.341 252.969 123.599 249.456 126.036C245.999 128.416 241.268 129.606 235.261 129.606Z" fill="white"></path><path d="M307.764 106.826C307.764 107.449 307.707 108.271 307.594 109.291H271.044C271.554 113.257 273.282 116.459 276.229 118.896C279.232 121.276 282.944 122.466 287.364 122.466C292.747 122.466 297.082 120.652 300.369 117.026L304.874 122.296C302.834 124.676 300.284 126.489 297.224 127.736C294.221 128.982 290.849 129.606 287.109 129.606C282.349 129.606 278.127 128.642 274.444 126.716C270.761 124.732 267.899 121.984 265.859 118.471C263.876 114.957 262.884 110.991 262.884 106.571C262.884 102.207 263.847 98.2692 265.774 94.7558C267.757 91.2425 270.449 88.5225 273.849 86.5958C277.306 84.6125 281.187 83.6208 285.494 83.6208C289.801 83.6208 293.626 84.6125 296.969 86.5958C300.369 88.5225 303.004 91.2425 304.874 94.7558C306.801 98.2692 307.764 102.292 307.764 106.826ZM285.494 90.5058C281.584 90.5058 278.297 91.6958 275.634 94.0758C273.027 96.4558 271.497 99.5725 271.044 103.426H299.944C299.491 99.6292 297.932 96.5408 295.269 94.1608C292.662 91.7242 289.404 90.5058 285.494 90.5058Z" fill="white"></path><path d="M361.935 106.826C361.935 107.449 361.878 108.271 361.765 109.291H325.215C325.725 113.257 327.453 116.459 330.4 118.896C333.403 121.276 337.115 122.466 341.535 122.466C346.918 122.466 351.253 120.652 354.54 117.026L359.045 122.296C357.005 124.676 354.455 126.489 351.395 127.736C348.392 128.982 345.02 129.606 341.28 129.606C336.52 129.606 332.298 128.642 328.615 126.716C324.932 124.732 322.07 121.984 320.03 118.471C318.047 114.957 317.055 110.991 317.055 106.571C317.055 102.207 318.018 98.2692 319.945 94.7558C321.928 91.2425 324.62 88.5225 328.02 86.5958C331.477 84.6125 335.358 83.6208 339.665 83.6208C343.972 83.6208 347.797 84.6125 351.14 86.5958C354.54 88.5225 357.175 91.2425 359.045 94.7558C360.972 98.2692 361.935 102.292 361.935 106.826ZM339.665 90.5058C335.755 90.5058 332.468 91.6958 329.805 94.0758C327.198 96.4558 325.668 99.5725 325.215 103.426H354.115C353.662 99.6292 352.103 96.5408 349.44 94.1608C346.833 91.7242 343.575 90.5058 339.665 90.5058Z" fill="white"></path><path d="M417.891 66.0258V129.096H410.071V121.956C408.257 124.449 405.962 126.347 403.186 127.651C400.409 128.954 397.349 129.606 394.006 129.606C389.642 129.606 385.732 128.642 382.276 126.716C378.819 124.789 376.099 122.097 374.116 118.641C372.189 115.127 371.226 111.104 371.226 106.571C371.226 102.037 372.189 98.0425 374.116 94.5858C376.099 91.1292 378.819 88.4375 382.276 86.5108C385.732 84.5842 389.642 83.6208 394.006 83.6208C397.236 83.6208 400.211 84.2442 402.931 85.4908C405.651 86.6808 407.917 88.4658 409.731 90.8458V66.0258H417.891ZM394.686 122.466C397.519 122.466 400.097 121.814 402.421 120.511C404.744 119.151 406.557 117.281 407.861 114.901C409.164 112.464 409.816 109.687 409.816 106.571C409.816 103.454 409.164 100.706 407.861 98.3258C406.557 95.8892 404.744 94.0192 402.421 92.7158C400.097 91.4125 397.519 90.7608 394.686 90.7608C391.796 90.7608 389.189 91.4125 386.866 92.7158C384.599 94.0192 382.786 95.8892 381.426 98.3258C380.122 100.706 379.471 103.454 379.471 106.571C379.471 109.687 380.122 112.464 381.426 114.901C382.786 117.281 384.599 119.151 386.866 120.511C389.189 121.814 391.796 122.466 394.686 122.466Z" fill="white"></path><g clip-path="url(#clip0_1780_1661)"><path d="M443.794 134.703C450.194 141.298 459.123 144.596 470.581 144.596C482.038 144.596 490.927 141.298 497.249 134.703C503.649 128.026 506.849 118.499 506.849 106.122V57.8774H505.779L498.525 61.2283L491.678 58.124V105.511C491.678 122.285 484.685 130.672 470.699 130.672C458.261 130.672 451.323 124.113 449.884 110.995L434.763 114.654C435.941 122.968 438.952 129.651 443.794 134.703Z" fill="#A3A3A1"></path><path d="M444.529 128.557C450.544 134.624 458.935 137.658 469.702 137.658C480.469 137.658 488.823 134.624 494.763 128.557C500.778 122.414 503.785 113.649 503.785 102.263V58.7748L498.534 61.2148L491.202 57.8774H489.528V101.701C489.528 117.133 482.957 124.848 469.813 124.848C459.498 124.848 453.208 120.149 450.943 110.751L436.815 114.13C438.233 119.944 440.804 124.753 444.529 128.557Z" fill="white"></path><path d="M498.555 41.5958L515.631 49.3856L498.555 57.1753L481.478 49.3856L498.555 41.5958Z" fill="#F8A446"></path><path d="M498.555 41.8588V56.9319" stroke="#67656B" stroke-linecap="round"></path><path d="M482.164 49.3856L514.926 49.4189" stroke="#67656B" stroke-linecap="round"></path><path d="M434.631 112.177L449.318 108.708V105.239L434.631 108.708V112.177Z" fill="#A3A3A1"></path><path d="M436.281 111.787L450.65 108.391V104.922L435.963 108.391L436.281 111.787Z" fill="white"></path><path d="M434.631 105.835L449.318 102.367V98.8978L434.631 102.367V105.835Z" fill="#A3A3A1"></path><path d="M435.963 105.518L450.65 102.05V98.5809L435.963 102.05V105.518Z" fill="white"></path><path d="M434.631 99.494L449.318 96.0253V92.5565L434.631 96.0253V99.494Z" fill="#A3A3A1"></path><path d="M435.963 99.1771L450.65 95.7084V92.2396L435.963 95.7084V99.1771Z" fill="white"></path><path d="M434.631 93.1526L449.318 89.6838V86.2151L434.631 89.6838V93.1526Z" fill="#A3A3A1"></path><path d="M435.963 92.8357L450.65 89.367V85.8983L435.963 89.367V92.8357Z" fill="white"></path><path d="M436.252 80.8074L449.112 77.7541C450.014 77.5401 450.65 76.7348 450.65 75.8082V74.4155C450.65 72.9553 449.136 71.9873 447.811 72.6002L435.398 78.3404C434.934 78.555 434.637 79.0197 434.637 79.531C434.637 80.378 435.428 81.003 436.252 80.8074Z" fill="#F8A446"></path><path d="M434.631 86.8113L449.318 83.3426V81.6136L434.631 85.0814V86.8113Z" fill="#A3A3A1"></path><path d="M435.963 86.4944L450.65 83.0257V81.2913L435.963 84.7601V86.4944Z" fill="white"></path></g><defs><clipPath id="clip0_1780_1661"><rect width="81" height="103" fill="white" transform="translate(434.631 41.5958)"></rect></clipPath></defs></svg>